<?xml version="1.0" standalone="no"?>
<!DOCTYPE svg PUBLIC "-//W3C//DTD SVG 20010904//EN"
 "http://www.w3.org/TR/2001/REC-SVG-20010904/DTD/svg10.dtd">
<svg version="1.0" xmlns="http://www.w3.org/2000/svg"
 width="288.000000pt" height="288.000000pt" viewBox="0 0 288.000000 288.000000"
 preserveAspectRatio="xMidYMid meet">
<metadata>
Created by potrace 1.14, written by Peter Selinger 2001-2017
</metadata>
<g transform="translate(0.000000,288.000000) scale(0.100000,-0.100000)"
fill="#000000" stroke="none">
<path d="M10 2872 c0 -7 121 -33 128 -27 1 1 0 10 -4 19 -5 12 -20 16 -65 16
-32 0 -59 -4 -59 -8z"/>
<path d="M195 2870 c-3 -5 -2 -10 4 -10 5 0 13 5 16 10 3 6 2 10 -4 10 -5 0
-13 -4 -16 -10z"/>
<path d="M1052 2844 c-37 -35 -37 -36 -9 -30 15 4 36 2 46 -4 15 -8 20 -6 24
10 3 12 11 18 19 15 9 -4 19 4 26 20 11 24 11 25 -28 25 -33 0 -48 -7 -78 -36z"/>
<path d="M1240 2870 c0 -5 -27 -35 -60 -67 -33 -31 -60 -60 -60 -64 0 -19 41
-18 78 1 45 24 109 24 104 2 -3 -17 42 -53 87 -70 34 -12 36 -12 74 28 l39 40
-26 11 c-33 16 -34 39 -1 39 14 0 25 -5 25 -11 0 -7 10 -9 25 -7 14 3 28 1 31
-3 3 -5 -2 -9 -10 -9 -9 0 -16 -5 -16 -11 0 -6 6 -9 13 -6 23 8 41 -9 32 -29
-5 -11 -9 -22 -9 -26 -1 -4 -10 -14 -21 -23 -19 -16 -19 -16 5 -8 35 10 98 7
143 -8 29 -9 40 -10 49 -1 29 29 86 4 66 -28 -9 -14 -8 -22 5 -35 19 -19 9
-48 -20 -59 -15 -6 -15 -8 -3 -16 27 -17 4 -20 -61 -8 -49 8 -78 8 -122 -1
-33 -7 -61 -10 -64 -7 -3 2 11 8 31 11 20 4 39 11 42 16 3 5 17 9 32 10 24 1
23 2 -8 10 -67 16 -138 -5 -224 -66 -35 -25 -52 -32 -64 -26 -9 5 -26 5 -40 0
-21 -8 -24 -7 -20 9 5 16 0 18 -31 16 -34 -2 -36 -4 -36 -38 0 -26 -6 -40 -24
-52 l-24 -17 21 -8 c29 -11 28 -29 0 -30 -13 -1 -40 -3 -61 -4 -21 -2 -35 0
-32 4 2 5 -12 0 -32 -10 -21 -11 -44 -19 -53 -18 -8 0 0 7 18 15 43 19 41 28
-5 19 -34 -6 -63 -26 -111 -77 -24 -26 -32 -22 -32 17 0 27 4 34 18 32 9 -1
17 2 17 8 0 5 -4 10 -10 10 -5 0 -19 5 -30 11 -11 6 -27 10 -35 9 -8 -1 -21
-3 -27 -3 -21 -3 -14 -22 12 -34 29 -13 33 -45 8 -55 -10 -4 -29 -17 -43 -30
-14 -13 -28 -23 -32 -23 -14 0 -9 -28 6 -33 7 -3 16 -17 18 -31 5 -26 5 -26
-21 -10 -55 36 -65 44 -53 44 6 0 12 9 12 20 0 11 7 20 15 20 10 0 15 10 15
29 0 29 21 57 33 44 4 -3 7 1 7 10 0 8 -10 18 -22 20 -23 4 -23 4 -1 6 12 0
24 10 28 22 10 29 -4 38 -21 14 -8 -11 -22 -19 -30 -17 -14 3 -35 -37 -38 -73
0 -11 -9 -21 -21 -23 -40 -6 -185 -72 -185 -84 0 -14 -61 -39 -80 -33 -21 7
-28 25 -10 25 15 0 30 43 19 54 -5 5 -16 1 -26 -11 -45 -49 -112 -43 -99 9 3
13 3 17 0 11 -6 -15 -44 -18 -44 -4 0 5 7 14 15 21 13 11 10 15 -17 30 -18 10
-32 23 -31 29 2 6 -2 11 -7 11 -6 0 -10 -6 -10 -14 0 -12 -60 -52 -65 -44 -10
17 -23 88 -19 104 5 20 2 21 -52 18 -45 -3 -60 0 -70 14 -12 15 -13 13 -14
-15 0 -22 5 -33 14 -33 8 0 17 -4 20 -9 9 -14 -4 -41 -20 -41 -10 0 -14 -12
-14 -40 0 -33 3 -40 19 -40 11 0 22 6 24 13 4 9 6 9 6 -1 1 -22 -19 -52 -34
-52 -12 0 -14 -69 -15 -469 l0 -469 42 4 c24 2 93 8 153 13 61 6 117 10 125
10 8 0 87 5 175 10 88 6 223 13 300 16 77 3 174 8 215 11 66 5 72 8 56 20 -16
11 -17 16 -6 28 10 13 9 18 -3 31 -20 19 -51 19 -67 0 -7 -8 -16 -15 -21 -15
-5 0 -9 7 -9 15 0 18 -26 20 -33 3 -3 -7 -6 -3 -6 10 -1 17 7 26 29 33 34 12
36 23 14 67 -9 19 -23 32 -35 32 -21 0 -26 16 -7 22 8 3 5 17 -10 46 -33 63
-29 114 9 146 17 14 35 26 41 26 12 0 88 -78 88 -91 0 -5 -5 -9 -11 -9 -5 0
-7 -5 -4 -10 4 -6 -7 -15 -24 -21 -20 -7 -31 -18 -31 -30 0 -27 26 -34 55 -15
19 12 25 25 25 51 0 18 4 36 9 40 5 3 13 20 16 37 4 18 17 53 28 78 11 25 21
50 22 55 1 11 4 18 41 113 13 34 24 74 24 89 0 28 69 103 95 103 8 0 15 4 15
10 0 5 12 13 28 16 15 4 32 10 37 14 24 17 113 38 140 33 17 -3 44 -16 62 -29
17 -13 37 -24 42 -24 12 0 53 -21 61 -31 3 -3 21 -11 40 -18 52 -17 83 -46 75
-71 -5 -15 -3 -18 9 -14 9 3 17 1 17 -5 1 -6 2 -16 3 -22 3 -27 67 -36 90 -14
14 14 17 13 30 -7 20 -30 36 -154 22 -168 -7 -7 -7 -10 1 -10 6 0 13 -12 16
-27 12 -71 41 -162 48 -157 5 3 9 -7 9 -21 0 -17 -4 -24 -12 -19 -6 4 -8 3 -5
-2 6 -11 -18 -103 -56 -213 -15 -41 -25 -76 -24 -76 1 -1 101 -7 222 -13 121
-6 238 -16 260 -22 22 -6 65 -18 95 -27 30 -8 60 -19 65 -24 6 -4 48 -26 93
-49 86 -42 153 -95 184 -145 l18 -30 0 132 c0 114 -2 132 -15 127 -8 -4 -15
-1 -15 5 0 6 7 11 15 11 12 0 15 18 14 105 -1 105 -1 105 -24 99 -18 -4 -25
-1 -30 15 -5 18 -14 21 -57 21 -44 0 -49 2 -38 15 7 8 23 15 36 15 12 0 26 5
30 11 6 11 33 9 66 -6 16 -6 18 4 16 142 -1 81 -3 136 -5 121 -4 -25 -9 -28
-46 -30 -23 -1 -59 0 -79 1 -22 1 -38 -2 -38 -8 0 -6 -13 -11 -30 -11 -16 0
-30 5 -30 10 0 6 -11 8 -26 4 -18 -5 -25 -3 -20 4 3 6 -14 15 -44 23 -54 14
-62 24 -27 35 12 3 30 14 40 22 15 13 22 14 37 4 11 -7 40 -12 65 -12 30 0 44
-4 43 -12 -2 -8 15 -15 46 -18 42 -5 52 -3 72 17 13 13 28 23 34 23 5 0 10 9
10 20 0 11 -7 20 -15 20 -8 0 -15 7 -15 15 0 8 -7 15 -15 15 -8 0 -15 -7 -15
-15 0 -20 -12 -19 -52 5 -36 21 -102 28 -154 16 -22 -5 -34 -3 -43 8 -11 13
-9 17 15 28 39 16 38 16 24 33 -16 20 -40 19 -55 -2 -11 -14 -16 -15 -44 -3
-24 10 -35 10 -44 1 -19 -19 -29 -12 -23 15 6 23 4 26 -13 21 -14 -3 -22 1
-26 14 -8 23 -19 24 -39 4 -10 -11 -17 -12 -22 -4 -8 13 -64 7 -109 -11 -40
-17 -96 -13 -118 9 -18 17 -17 18 12 31 l30 12 -34 33 c-29 27 -35 40 -35 73
0 22 -6 47 -12 54 -7 8 -18 23 -24 33 -6 11 -26 31 -45 43 -19 13 -33 27 -32
31 1 5 -15 25 -37 46 -34 33 -37 40 -24 52 8 8 11 19 8 25 -5 7 -11 5 -19 -5
-13 -19 -35 -23 -35 -7 0 6 -6 10 -13 10 -7 0 -18 9 -25 20 -7 11 -8 20 -3 20
5 0 11 -5 13 -10 2 -6 21 5 43 25 22 20 50 43 63 52 30 21 29 42 -3 35 -31 -5
-32 10 -3 38 12 11 19 22 16 26 -7 7 -68 -36 -68 -48 0 -4 -7 -8 -15 -8 -8 0
-17 14 -21 35 -6 36 -17 41 -82 37 -13 0 -22 2 -20 6 17 36 45 70 62 78 12 5
20 14 19 19 0 6 3 17 8 26 10 19 -17 49 -44 49 -9 0 -17 5 -17 10 0 6 -61 10
-162 10 -117 -1 -158 -4 -145 -11 29 -17 10 -28 -28 -16 -19 5 -32 14 -29 19
3 4 -36 8 -85 8 -54 0 -91 -4 -91 -10z m500 -20 c0 -5 -7 -10 -15 -10 -8 0
-15 5 -15 10 0 6 7 10 15 10 8 0 15 -4 15 -10z m-175 -19 c-3 -6 -14 -11 -23
-11 -15 1 -15 2 2 15 21 16 32 13 21 -4z m215 -51 c0 -12 -28 -25 -36 -17 -9
9 6 27 22 27 8 0 14 -5 14 -10z m-82 -11 c-2 -6 -8 -10 -13 -10 -5 0 -11 4
-13 10 -2 6 4 11 13 11 9 0 15 -5 13 -11z m-251 -45 c-3 -3 -12 -4 -19 -1 -8
3 -5 6 6 6 11 1 17 -2 13 -5z m-202 -403 c3 -6 -11 -13 -32 -16 -21 -4 -48
-10 -61 -16 -30 -12 -49 -12 -36 0 8 8 95 38 116 40 4 1 9 -3 13 -8z m-1142
-13 c18 3 23 -13 7 -23 -16 -10 -50 5 -50 21 0 10 5 12 13 7 6 -4 20 -6 30 -5z
m-2 -81 c-6 -6 -6 -16 1 -27 11 -18 5 -50 -9 -50 -4 0 -15 4 -23 10 -12 7 -12
12 4 29 17 19 17 21 2 27 -19 7 -21 30 -3 37 18 6 40 -14 28 -26z m845 8 c-3
-8 -9 -22 -12 -30 -3 -8 -1 -15 6 -15 7 0 6 -6 -4 -16 -18 -17 -22 -49 -5 -39
6 4 5 -2 -3 -14 -7 -12 -16 -21 -20 -21 -8 0 0 68 9 83 6 10 -44 28 -62 21 -8
-4 -15 -1 -15 6 0 8 13 11 39 8 32 -3 41 0 44 14 3 10 11 18 17 18 7 0 9 -7 6
-15z m-786 -59 c0 -3 -4 -8 -10 -11 -5 -3 -10 -1 -10 4 0 6 5 11 10 11 6 0 10
-2 10 -4z m60 -36 c0 -5 -4 -10 -10 -10 -5 0 -10 5 -10 10 0 6 5 10 10 10 6 0
10 -4 10 -10z m56 -17 c-10 -10 -19 5 -10 18 6 11 8 11 12 0 2 -7 1 -15 -2
-18z m424 4 c0 -18 -21 -37 -41 -37 -26 0 -32 16 -13 34 19 19 54 21 54 3z
m-611 -38 c-21 -13 -39 -11 -39 5 0 8 10 16 23 18 26 4 36 -10 16 -23z m292
-22 c-8 -8 -14 -7 -23 2 -11 10 -9 15 7 27 18 13 20 13 23 -2 2 -9 -1 -21 -7
-27z m369 28 c0 -8 -9 -15 -20 -15 -20 0 -26 11 -13 23 12 13 33 7 33 -8z
m108 -4 c35 -30 27 -48 -31 -69 -66 -25 -78 -27 -100 -17 -10 4 -23 2 -32 -5
-12 -10 -21 -7 -51 15 -20 16 -34 34 -32 43 5 26 44 26 69 1 12 -12 32 -21 45
-21 31 0 71 26 79 52 8 25 23 25 53 1z m1262 -21 c0 -5 -4 -10 -10 -10 -5 0
-10 5 -10 10 0 6 5 10 10 10 6 0 10 -4 10 -10z m-1196 -116 c1 -22 5 -46 7
-54 6 -23 -37 -24 -60 -1 -25 25 -81 29 -81 6 0 -20 -36 -19 -44 1 -9 23 -7
34 4 34 6 0 28 12 50 26 26 18 47 24 62 21 13 -4 30 -2 38 3 19 12 20 9 24
-36z m-310 10 c4 -9 5 -19 3 -21 -7 -7 -57 16 -57 27 0 17 47 11 54 -6z m61
-15 c-4 -5 -13 -9 -22 -9 -13 0 -13 3 -3 15 13 15 35 11 25 -6z m45 -19 c0 -5
-12 -10 -27 -9 l-28 1 25 8 c14 4 26 8 28 9 1 1 2 -3 2 -9z m-348 -25 c0 -5
-5 -11 -11 -13 -6 -2 -11 4 -11 13 0 9 5 15 11 13 6 -2 11 -8 11 -13z m2178 5
c0 -5 -4 -10 -10 -10 -5 0 -10 5 -10 10 0 6 5 10 10 10 6 0 10 -4 10 -10z m10
-40 c0 -5 -4 -10 -10 -10 -5 0 -10 5 -10 10 0 6 5 10 10 10 6 0 10 -4 10 -10z
m-1733 -42 c24 -22 30 -38 14 -38 -11 0 -61 44 -61 54 0 13 25 5 47 -16z
m-787 -73 c0 -8 -7 -15 -15 -15 -9 0 -12 6 -9 15 4 8 10 15 15 15 5 0 9 -7 9
-15z m2377 9 c-3 -3 -12 -4 -19 -1 -8 3 -5 6 6 6 11 1 17 -2 13 -5z m-1847
-35 c0 -11 -4 -18 -10 -14 -5 3 -7 12 -3 20 7 21 13 19 13 -6z m110 11 c0 -5
-4 -10 -10 -10 -5 0 -10 5 -10 10 0 6 5 10 10 10 6 0 10 -4 10 -10z m1910 -10
c0 -5 -9 -10 -21 -10 -11 0 -17 5 -14 10 3 6 13 10 21 10 8 0 14 -4 14 -10z
m-550 -46 c0 -8 -4 -12 -10 -9 -5 3 -10 10 -10 16 0 5 5 9 10 9 6 0 10 -7 10
-16z m685 -3 c7 -13 -2 -17 -50 -25 l-40 -7 30 20 c33 23 51 26 60 12z m-688
-43 c-3 -8 -6 -5 -6 6 -1 11 2 17 5 13 3 -3 4 -12 1 -19z m773 -54 c0 -22 -4
-25 -32 -22 -35 3 -52 28 -19 28 11 0 23 5 26 10 11 19 25 10 25 -16z m-130
-19 c-7 -8 -22 -15 -33 -15 -25 0 -12 16 18 23 11 3 22 5 24 6 2 0 -2 -6 -9
-14z m-314 -244 c-5 -2 -12 1 -14 8 -5 15 -29 14 -35 -1 -3 -8 -6 -6 -6 5 -1
10 9 21 21 26 18 6 25 4 33 -13 7 -14 8 -22 1 -25z m-1326 -6 c0 -8 -7 -15
-15 -15 -16 0 -20 12 -8 23 11 12 23 8 23 -8z m1185 6 c3 -5 1 -12 -5 -16 -5
-3 -10 1 -10 9 0 18 6 21 15 7z m323 -43 c-3 -7 -20 -14 -38 -16 -30 -3 -32
-2 -21 12 16 19 65 22 59 4z m72 -3 c0 -9 -9 -15 -25 -15 -26 0 -34 15 -12 23
23 10 37 7 37 -8z m166 -26 c11 -18 -13 -34 -31 -19 -8 7 -15 16 -15 21 0 13
38 11 46 -2z"/>
<path d="M888 1943 c7 -3 16 -2 19 1 4 3 -2 6 -13 5 -11 0 -14 -3 -6 -6z"/>
<path d="M2115 2868 c44 -25 41 -48 -8 -48 -18 -1 -43 -7 -57 -15 -25 -14 -24
-14 18 -15 24 0 42 -5 42 -11 0 -8 17 -9 53 -5 93 11 103 -26 13 -53 -25 -7
-47 -17 -47 -22 -1 -5 -2 -15 -3 -21 -1 -7 -10 -21 -21 -30 -20 -17 -20 -17 3
-18 14 0 26 8 31 23 11 29 79 51 116 37 34 -13 26 -23 -40 -51 -67 -27 -72
-52 -20 -86 40 -25 49 -18 39 33 -5 29 -4 36 7 32 8 -3 13 -12 11 -20 -1 -9 4
-21 12 -27 13 -11 16 -7 23 20 5 18 18 37 28 43 11 6 24 17 28 24 10 15 143
17 152 2 3 -6 -3 -24 -15 -40 l-21 -30 40 0 c30 0 43 5 51 19 7 14 7 22 0 26
-6 4 -9 14 -8 23 2 11 -3 16 -13 14 -21 -3 -44 23 -29 33 6 4 16 2 23 -3 7 -5
31 -14 54 -19 59 -15 70 1 33 47 -28 34 -29 34 -49 16 -24 -22 -46 -13 -31 14
14 27 13 28 -17 32 -32 3 -35 17 -7 33 11 5 21 11 23 13 3 1 -5 11 -17 22 -20
19 -35 20 -219 20 -153 -1 -193 -3 -178 -12z m295 -38 c13 -9 12 -12 -4 -25
-33 -25 -76 -13 -76 22 0 16 58 17 80 3z"/>
<path d="M2598 2865 c9 -7 27 -14 40 -18 17 -4 22 -1 22 14 0 16 -7 19 -40 17
-34 -1 -37 -3 -22 -13z"/>
<path d="M2858 2873 c7 -3 16 -2 19 1 4 3 -2 6 -13 5 -11 0 -14 -3 -6 -6z"/>
<path d="M310 2831 c0 -5 5 -13 10 -16 6 -3 10 -2 10 4 0 5 -4 13 -10 16 -5 3
-10 2 -10 -4z"/>
<path d="M435 2810 c-3 -5 3 -10 14 -10 11 0 23 5 26 10 3 6 -3 10 -14 10 -11
0 -23 -4 -26 -10z"/>
<path d="M1910 2805 c0 -9 5 -15 11 -13 6 2 11 8 11 13 0 5 -5 11 -11 13 -6 2
-11 -4 -11 -13z"/>
<path d="M960 2795 c0 -9 6 -12 15 -9 8 4 15 10 15 15 0 5 -7 9 -15 9 -8 0
-15 -7 -15 -15z"/>
<path d="M250 2770 c0 -5 6 -10 14 -10 8 0 18 5 21 10 3 6 -3 10 -14 10 -12 0
-21 -4 -21 -10z"/>
<path d="M1050 2752 c0 -19 12 -42 22 -42 14 0 5 43 -9 48 -7 2 -13 -1 -13 -6z"/>
<path d="M2677 2754 c-13 -13 -7 -24 14 -24 11 0 19 5 17 12 -5 14 -22 21 -31
12z"/>
<path d="M904 2719 c-3 -6 -1 -16 5 -22 8 -8 11 -5 11 11 0 24 -5 28 -16 11z"/>
<path d="M2776 2716 c3 -8 -4 -16 -20 -20 -21 -5 -26 -13 -26 -37 0 -29 1 -30
38 -23 81 15 107 28 110 55 3 23 -1 27 -35 32 -58 10 -73 9 -67 -7z"/>
<path d="M1884 2705 c-4 -9 -4 -18 -2 -21 9 -8 39 8 35 19 -6 18 -27 20 -33 2z"/>
<path d="M1980 2700 c0 -5 5 -10 10 -10 6 0 10 5 10 10 0 6 -4 10 -10 10 -5 0
-10 -4 -10 -10z"/>
<path d="M1080 2686 c0 -8 5 -18 10 -21 6 -3 10 1 10 9 0 8 -4 18 -10 21 -5 3
-10 -1 -10 -9z"/>
<path d="M160 2679 c0 -5 5 -7 10 -4 6 3 10 8 10 11 0 2 -4 4 -10 4 -5 0 -10
-5 -10 -11z"/>
<path d="M540 2670 c0 -5 5 -10 11 -10 5 0 7 5 4 10 -3 6 -8 10 -11 10 -2 0
-4 -4 -4 -10z"/>
<path d="M841 2667 c-6 -8 -8 -17 -4 -20 12 -13 28 -7 41 13 11 17 10 20 -7
20 -10 0 -24 -6 -30 -13z"/>
<path d="M1265 2630 c-19 -7 -18 -9 8 -19 19 -7 34 -8 47 -1 10 5 31 10 47 10
22 0 25 2 13 10 -18 12 -87 12 -115 0z"/>
<path d="M898 2623 c7 -3 16 -2 19 1 4 3 -2 6 -13 5 -11 0 -14 -3 -6 -6z"/>
<path d="M1650 2576 c0 -25 3 -27 43 -24 23 1 52 -1 65 -6 12 -4 22 -3 22 2 0
16 -46 41 -89 48 -39 6 -41 5 -41 -20z"/>
<path d="M1390 2580 c0 -5 4 -10 9 -10 6 0 13 5 16 10 3 6 -1 10 -9 10 -9 0
-16 -4 -16 -10z"/>
<path d="M1466 2570 c7 -7 19 -7 35 -1 23 9 22 10 -10 10 -24 1 -32 -2 -25 -9z"/>
<path d="M1303 2551 c-8 -12 -7 -22 2 -34 11 -16 13 -16 27 1 13 15 13 19 -2
33 -16 15 -18 15 -27 0z"/>
<path d="M2830 2551 c-10 -21 -45 -37 -69 -32 -7 1 -10 -2 -6 -8 3 -6 2 -11
-4 -11 -5 0 -13 5 -16 10 -9 15 -26 1 -24 -18 3 -25 -11 -52 -27 -52 -8 0 -14
7 -14 15 0 26 -40 17 -71 -16 -36 -38 -37 -57 -4 -69 14 -5 25 -16 25 -24 0
-7 10 -16 21 -19 14 -4 20 -11 16 -20 -7 -20 32 -62 45 -49 11 11 1 52 -13 52
-5 0 2 23 16 51 19 37 23 54 15 63 -13 17 13 41 35 32 17 -6 20 -32 5 -41 -17
-10 0 -26 21 -20 35 11 20 -10 -25 -34 -27 -15 -42 -30 -39 -38 7 -18 30 -16
41 3 6 11 24 16 60 17 47 1 51 2 56 30 9 43 8 47 -11 47 -17 1 -17 1 0 14 13
10 17 28 17 75 0 54 -2 61 -20 61 -10 0 -24 -9 -30 -19z"/>
<path d="M1465 2539 c-37 -18 -65 -39 -53 -39 3 0 32 13 64 30 32 16 52 30 44
29 -8 0 -33 -9 -55 -20z"/>
<path d="M1160 2540 c0 -5 4 -10 9 -10 6 0 13 5 16 10 3 6 -1 10 -9 10 -9 0
-16 -4 -16 -10z"/>
<path d="M855 2530 c-8 -12 20 -24 35 -15 5 3 10 10 10 16 0 12 -37 12 -45 -1z"/>
<path d="M2161 2521 c-11 -7 -11 -9 0 -13 20 -7 50 3 43 13 -7 11 -25 11 -43
0z"/>
<path d="M2370 2520 c0 -5 4 -10 9 -10 6 0 13 5 16 10 3 6 -1 10 -9 10 -9 0
-16 -4 -16 -10z"/>
<path d="M1010 2510 c0 -5 5 -10 10 -10 6 0 10 5 10 10 0 6 -4 10 -10 10 -5 0
-10 -4 -10 -10z"/>
<path d="M1185 2490 c-8 -13 4 -32 16 -25 12 8 12 35 0 35 -6 0 -13 -4 -16
-10z"/>
<path d="M2481 2487 c-8 -11 -5 -16 13 -25 29 -13 39 -6 25 19 -12 22 -22 24
-38 6z"/>
<path d="M570 2464 c0 -14 3 -14 15 -4 8 7 15 14 15 16 0 2 -7 4 -15 4 -8 0
-15 -7 -15 -16z"/>
<path d="M645 2460 c-10 -11 -14 -20 -9 -20 5 0 15 9 22 20 7 11 11 20 9 20
-2 0 -12 -9 -22 -20z"/>
<path d="M875 2450 c-3 -5 -2 -10 4 -10 5 0 13 5 16 10 3 6 2 10 -4 10 -5 0
-13 -4 -16 -10z"/>
<path d="M1100 2410 c-8 -5 -11 -12 -8 -16 10 -9 38 3 38 16 0 12 -10 13 -30
0z"/>
<path d="M605 2390 c-16 -3 -30 -11 -29 -18 1 -6 2 -20 3 -30 1 -16 9 -19 54
-17 51 2 52 2 53 32 1 26 -3 32 -25 35 -14 2 -39 1 -56 -2z"/>
<path d="M954 2374 c-5 -18 -3 -29 4 -32 7 -2 10 -8 7 -13 -4 -5 1 -6 9 -3 9
3 16 10 16 14 0 5 7 16 16 24 14 15 14 16 -3 16 -11 0 -24 5 -30 11 -9 9 -14
5 -19 -17z"/>
<path d="M1155 2390 c3 -5 8 -10 11 -10 2 0 4 5 4 10 0 6 -5 10 -11 10 -5 0
-7 -4 -4 -10z"/>
<path d="M531 2356 c-16 -9 -19 -15 -11 -18 15 -5 -18 -57 -55 -90 -19 -16
-18 -16 33 -3 30 7 60 11 67 9 7 -3 16 -1 19 5 8 12 -28 33 -39 23 -5 -4 -5 1
-2 11 4 10 7 21 7 23 0 3 4 2 10 -1 6 -3 7 1 4 9 -3 9 -11 16 -18 16 -6 0 -4
4 4 10 23 15 7 20 -19 6z"/>
<path d="M2500 2313 c0 -13 29 -38 35 -31 3 3 -4 13 -15 23 -11 10 -20 13 -20
8z"/>
<path d="M2230 2301 c0 -10 24 -21 47 -21 13 0 13 3 3 15 -13 16 -50 21 -50 6z"/>
<path d="M610 2273 c0 -14 24 -16 55 -4 16 7 13 9 -17 13 -27 3 -38 0 -38 -9z"/>
<path d="M2146 2266 c-43 -26 -38 -35 15 -29 27 4 35 9 34 24 -2 29 -8 30 -49
5z"/>
<path d="M345 2250 c-9 -14 34 -52 53 -47 14 4 13 6 -6 12 -16 5 -21 13 -17
26 7 20 -18 28 -30 9z"/>
<path d="M2356 2234 c-8 -20 9 -32 37 -27 28 6 32 10 19 30 -9 15 -50 13 -56
-3z"/>
<path d="M2756 2228 c7 -10 74 -11 74 0 0 4 -18 7 -39 7 -22 1 -37 -3 -35 -7z"/>
<path d="M2585 2190 c4 -6 11 -8 16 -5 14 9 11 15 -7 15 -8 0 -12 -5 -9 -10z"/>
<path d="M2511 2164 c-19 -14 -28 -15 -42 -6 -24 15 -51 15 -83 0 -20 -9 -23
-14 -15 -25 6 -7 19 -13 28 -13 9 0 22 -4 30 -9 12 -8 13 -12 1 -25 -19 -24
-6 -30 23 -11 32 20 47 2 21 -26 -22 -24 -3 -25 37 -2 31 18 35 28 19 38 -20
13 1 22 50 24 28 0 59 -5 70 -11 16 -10 23 -9 42 9 36 33 74 39 88 14 13 -24
33 -27 49 -7 20 24 -22 39 -85 31 -36 -4 -54 -3 -54 4 0 17 -56 13 -70 -4 -18
-22 -38 -18 -42 8 -4 28 -35 33 -67 11z"/>
<path d="M2837 2155 c17 -24 43 -34 43 -17 0 13 -34 42 -49 42 -8 0 -6 -8 6
-25z"/>
<path d="M2330 2096 c0 -9 7 -16 16 -16 17 0 14 22 -4 28 -7 2 -12 -3 -12 -12z"/>
<path d="M2756 2054 c-9 -24 -7 -34 8 -34 7 0 16 11 18 25 6 28 -16 36 -26 9z"/>
<path d="M2578 2043 c12 -2 30 -2 40 0 9 3 -1 5 -23 4 -22 0 -30 -2 -17 -4z"/>
<path d="M2864 2009 c-3 -6 -1 -16 5 -22 8 -8 11 -5 11 11 0 24 -5 28 -16 11z"/>
<path d="M2644 1991 c-2 -2 -4 -10 -4 -18 0 -9 15 -13 50 -13 43 0 50 3 50 19
0 17 -7 19 -46 18 -25 -1 -48 -4 -50 -6z"/>
<path d="M1321 1859 c-40 -16 -54 -31 -39 -40 9 -6 5 -14 -15 -33 -27 -25 -35
-46 -17 -46 6 0 10 -7 10 -16 0 -15 10 -16 85 -10 57 5 85 4 85 -3 0 -6 -10
-12 -22 -12 -15 -1 -10 -4 12 -8 39 -8 76 1 73 18 -2 6 4 11 12 11 21 0 49 27
70 69 17 34 17 35 -6 52 -13 9 -39 20 -58 23 -54 9 -163 6 -190 -5z m136 -49
c2 0 3 -4 3 -9 0 -9 -120 -22 -133 -14 -5 3 8 13 29 23 28 12 47 14 69 8 16
-4 31 -8 32 -8z"/>
<path d="M1768 1846 c-48 -6 -92 -16 -99 -23 -14 -14 -16 -160 -1 -175 8 -8
13 0 17 26 8 43 21 54 28 26 9 -35 66 -51 133 -39 32 6 75 9 96 7 35 -3 37 -2
31 22 -3 14 -12 40 -19 59 -8 18 -12 36 -10 40 9 14 -36 55 -69 64 -11 2 -59
-1 -107 -7z m82 -66 c0 -5 -17 -10 -37 -9 -31 0 -34 2 -18 9 28 12 55 12 55 0z"/>
<path d="M2590 1801 c0 -6 5 -13 10 -16 6 -3 10 1 10 9 0 9 -4 16 -10 16 -5 0
-10 -4 -10 -9z"/>
<path d="M2660 1785 c-7 -9 -11 -17 -8 -20 8 -8 47 7 52 21 7 19 -28 18 -44
-1z"/>
<path d="M919 1680 c-10 -33 -10 -43 0 -53 11 -10 12 -8 6 11 -5 17 -2 22 12
22 11 0 24 5 31 12 9 9 16 7 32 -7 18 -16 20 -16 20 -2 0 23 -40 57 -66 57
-18 0 -26 -9 -35 -40z"/>
<path d="M1710 1566 c0 -2 7 -7 16 -10 8 -3 12 -2 9 4 -6 10 -25 14 -25 6z"/>
<path d="M1462 1530 c-8 -13 -8 -20 -2 -20 6 0 13 7 17 15 9 24 -1 27 -15 5z"/>
<path d="M1045 1530 c3 -5 8 -10 11 -10 2 0 4 5 4 10 0 6 -5 10 -11 10 -5 0
-7 -4 -4 -10z"/>
<path d="M1523 1501 c-18 -9 -33 -19 -33 -23 0 -13 77 -31 84 -19 3 4 21 5 40
3 20 -2 34 -8 31 -12 -5 -8 38 -30 59 -30 8 0 16 -7 20 -15 3 -8 12 -12 21 -9
8 3 15 1 15 -5 0 -7 -36 -10 -111 -8 -71 2 -124 -2 -147 -10 -21 -7 -47 -13
-58 -13 -20 0 -34 -17 -34 -40 0 -4 21 -10 46 -13 26 -2 50 -10 54 -17 5 -8
10 -9 14 -2 3 6 0 12 -6 15 -7 2 -10 8 -6 12 8 9 138 -14 138 -25 0 -4 -24 -8
-52 -9 -29 -1 -56 -5 -61 -10 -13 -13 39 -49 98 -66 33 -9 59 -23 65 -35 6
-11 21 -20 33 -20 18 0 19 -2 7 -10 -8 -5 -28 -9 -45 -9 -16 1 -61 -4 -100
-11 -100 -17 -156 -14 -203 10 -40 21 -83 60 -66 60 13 0 12 43 -1 55 -5 6
-39 11 -73 12 -42 1 -70 7 -81 17 -10 9 -25 16 -34 16 -13 0 -14 -5 -6 -30 6
-16 15 -30 20 -30 5 0 9 -13 9 -29 0 -38 20 -92 31 -85 5 3 9 -3 9 -13 0 -10
16 -29 35 -42 19 -13 33 -27 30 -31 -3 -4 30 -22 73 -41 42 -18 103 -48 134
-67 l58 -33 -56 -52 c-52 -48 -56 -55 -45 -75 6 -12 18 -22 25 -22 7 0 25 -12
39 -26 22 -22 26 -32 21 -68 -5 -37 3 -99 51 -396 8 -52 16 -130 16 -172 l2
-78 104 0 103 0 0 33 c0 35 -23 155 -66 342 -22 100 -74 244 -114 317 -16 28
-11 71 9 96 22 25 43 21 65 -13 9 -14 26 -29 38 -36 l21 -11 -21 28 c-62 85
-120 129 -154 118 -15 -4 0 15 40 51 35 32 72 75 82 96 43 84 61 60 58 -81 -1
-97 1 -110 29 -176 17 -39 34 -95 37 -125 4 -30 13 -81 21 -114 13 -55 45
-301 45 -345 0 -10 -7 -25 -15 -33 -10 -11 -11 -17 -3 -19 9 -3 8 -20 -3 -66
l-16 -62 519 0 518 0 0 470 c0 371 -3 470 -13 470 -6 0 -18 14 -25 30 -22 48
-32 35 -15 -17 9 -27 19 -52 23 -58 14 -18 23 -58 12 -51 -6 3 -22 37 -37 76
-25 64 -62 126 -71 117 -2 -2 3 -21 11 -43 10 -26 11 -34 3 -23 -42 50 -57 67
-82 89 -24 21 -27 22 -18 5 5 -11 20 -29 31 -39 12 -11 21 -23 21 -29 0 -5
-20 9 -45 32 -25 23 -50 39 -55 36 -6 -4 -32 11 -58 33 -50 42 -103 72 -124
72 -7 -1 1 -12 17 -25 34 -28 28 -32 -16 -9 -16 8 -38 12 -48 9 -10 -3 -46 2
-81 11 -35 9 -76 13 -93 10 -16 -3 -81 -1 -145 5 -81 7 -118 7 -125 0 -6 -6
-29 -11 -51 -11 -36 1 -39 2 -24 14 10 7 15 15 12 18 -2 3 5 22 17 42 15 27
22 55 23 101 0 34 3 62 7 60 3 -2 6 12 6 32 1 20 -2 32 -5 27 -9 -12 -65 -37
-58 -25 3 5 -4 11 -17 15 -36 9 -39 7 -18 -15 15 -17 17 -24 8 -34 -10 -10
-17 -9 -36 7 -18 13 -34 17 -55 13 -28 -5 -29 -4 -14 8 10 8 15 17 11 20 -3 4
-2 7 3 7 5 0 10 9 10 20 0 12 -7 20 -16 20 -9 0 -21 5 -28 12 -19 19 -161 18
-199 -1z m77 -177 c0 -2 -7 -4 -15 -4 -8 0 -15 4 -15 10 0 5 7 7 15 4 8 -4 15
-8 15 -10z m220 -22 c0 -14 -43 -49 -68 -55 -27 -6 -25 11 3 27 11 6 25 17 33
24 15 14 32 16 32 4z m303 -199 c-7 -2 -19 -2 -25 0 -7 3 -2 5 12 5 14 0 19
-2 13 -5z m-76 -9 c-3 -3 -12 -4 -19 -1 -8 3 -5 6 6 6 11 1 17 -2 13 -5z m311
-1 c-16 -2 -40 -2 -55 0 -16 2 -3 4 27 4 30 0 43 -2 28 -4z m-923 -23 c13 -6
15 -9 5 -9 -8 0 -22 4 -30 9 -18 12 -2 12 25 0z m698 -7 c-7 -2 -19 -2 -25 0
-7 3 -2 5 12 5 14 0 19 -2 13 -5z m441 -22 c-2 -3 -12 3 -22 13 -16 17 -16 18
5 5 12 -7 20 -15 17 -18z m-491 12 c-7 -2 -21 -2 -30 0 -10 3 -4 5 12 5 17 0
24 -2 18 -5z m262 -4 c-22 -4 -51 -8 -65 -8 -23 0 -23 1 -5 9 11 5 40 8 65 8
l45 0 -40 -9z m-240 -40 c-22 -4 -49 -8 -60 -7 -16 0 -15 2 5 8 14 4 41 8 60
8 l35 0 -40 -9z m240 -9 c-45 -11 -87 -11 -80 0 3 6 30 9 58 9 45 -1 48 -2 22
-9z m-510 -29 c-26 -6 -27 -8 -11 -14 10 -4 17 -10 14 -13 -3 -2 -18 1 -34 7
-27 10 -27 12 -9 19 11 5 31 8 45 8 22 0 22 -1 -5 -7z m275 -7 c-37 -8 -88 -9
-84 -2 3 4 26 7 52 7 26 -1 40 -3 32 -5z m223 -11 c-7 -2 -19 -2 -25 0 -7 3
-2 5 12 5 14 0 19 -2 13 -5z m-404 -24 c17 -6 31 -15 31 -20 0 -5 -15 -2 -32
7 -53 27 -53 32 1 13z m198 -5 c-3 -3 -12 -4 -19 -1 -8 3 -5 6 6 6 11 1 17 -2
13 -5z m-87 -14 c-8 -5 -26 -9 -40 -9 -23 1 -23 2 5 9 43 11 52 11 35 0z m293
-7 c-13 -2 -33 -2 -45 0 -13 2 -3 4 22 4 25 0 35 -2 23 -4z m-266 -9 c-3 -3
-12 -4 -19 -1 -8 3 -5 6 6 6 11 1 17 -2 13 -5z m128 -29 l30 -14 -35 6 c-19 3
-53 12 -75 19 l-40 13 45 -5 c25 -4 59 -12 75 -19z m62 -21 c-3 -3 -12 -4 -19
-1 -8 3 -5 6 6 6 11 1 17 -2 13 -5z m53 -24 c8 -5 11 -10 5 -10 -5 0 -17 5
-25 10 -8 5 -10 10 -5 10 6 0 17 -5 25 -10z m70 -26 l25 -15 -25 7 c-14 3 -32
10 -40 15 -13 7 -13 8 0 8 8 0 26 -6 40 -15z"/>
<path d="M1025 1400 c3 -5 10 -10 16 -10 5 0 9 5 9 10 0 6 -7 10 -16 10 -8 0
-12 -4 -9 -10z"/>
<path d="M2093 1253 c9 -2 23 -2 30 0 6 3 -1 5 -18 5 -16 0 -22 -2 -12 -5z"/>
<path d="M458 1243 c7 -3 16 -2 19 1 4 3 -2 6 -13 5 -11 0 -14 -3 -6 -6z"/>
<path d="M1028 1243 c12 -2 30 -2 40 0 9 3 -1 5 -23 4 -22 0 -30 -2 -17 -4z"/>
<path d="M578 1233 c7 -3 16 -2 19 1 4 3 -2 6 -13 5 -11 0 -14 -3 -6 -6z"/>
<path d="M810 1231 c8 -5 45 -11 83 -14 55 -5 67 -4 67 8 0 12 -17 15 -82 15
-50 0 -77 -4 -68 -9z"/>
<path d="M620 1220 c-28 -5 -20 -7 42 -11 43 -2 88 -1 100 2 20 5 19 6 -11 12
-39 8 -82 7 -131 -3z"/>
<path d="M1947 1223 c18 -2 50 -2 70 0 21 2 7 4 -32 4 -38 0 -55 -2 -38 -4z"/>
<path d="M2233 1223 c9 -2 23 -2 30 0 6 3 -1 5 -18 5 -16 0 -22 -2 -12 -5z"/>
<path d="M178 1213 c7 -3 16 -2 19 1 4 3 -2 6 -13 5 -11 0 -14 -3 -6 -6z"/>
<path d="M975 1210 c7 -12 62 -12 90 0 14 6 4 9 -38 9 -36 1 -56 -3 -52 -9z"/>
<path d="M2298 1213 c6 -2 18 -2 25 0 6 3 1 5 -13 5 -14 0 -19 -2 -12 -5z"/>
<path d="M236 1201 c-4 -5 22 -11 56 -13 73 -4 109 3 63 13 -46 10 -113 10
-119 0z"/>
<path d="M484 1198 c47 -7 72 -6 79 1 8 8 -12 11 -69 10 l-79 -2 69 -9z"/>
<path d="M790 1200 c0 -12 30 -12 85 -1 38 8 37 9 -22 10 -36 1 -63 -3 -63 -9z"/>
<path d="M2173 1203 c7 -11 177 -38 198 -31 17 6 -74 27 -150 35 -35 4 -52 3
-48 -4z"/>
<path d="M2348 1203 c7 -3 16 -2 19 1 4 3 -2 6 -13 5 -11 0 -14 -3 -6 -6z"/>
<path d="M50 1190 c-10 -7 12 -9 70 -9 58 1 77 4 60 9 -36 11 -112 11 -130 0z"/>
<path d="M1963 1193 c26 -2 68 -2 95 0 26 2 4 3 -48 3 -52 0 -74 -1 -47 -3z"/>
<path d="M415 1180 c-4 -6 27 -9 87 -9 87 2 89 2 38 9 -80 11 -118 11 -125 0z"/>
<path d="M643 1183 c26 -2 68 -2 95 0 26 2 4 3 -48 3 -52 0 -74 -1 -47 -3z"/>
<path d="M2518 1150 c59 -40 78 -48 67 -31 -6 11 -108 71 -120 71 -4 0 20 -18
53 -40z"/>
<path d="M215 1170 c3 -6 45 -9 93 -9 77 1 82 2 42 10 -66 11 -142 11 -135 -1z"/>
<path d="M816 1171 c5 -5 25 -11 44 -14 22 -2 11 -4 -28 -5 -35 -1 -61 -6 -58
-10 2 -4 -25 -6 -62 -4 -50 2 -63 1 -52 -8 11 -8 -14 -9 -95 -4 -94 6 -108 5
-98 -7 10 -12 -6 -14 -104 -10 -92 2 -114 1 -108 -10 6 -9 4 -11 -7 -6 -31 11
-184 19 -168 8 11 -8 4 -11 -32 -11 l-48 0 0 -49 c0 -30 5 -51 13 -54 10 -4
10 -6 0 -6 -20 -1 -15 -39 5 -44 16 -4 16 -5 0 -6 -28 -2 -21 -28 10 -39 l27
-10 -27 -1 c-40 -1 -36 -29 5 -34 l32 -4 -32 -1 c-25 -2 -33 -7 -33 -21 0 -15
8 -21 38 -24 l37 -4 -37 -1 c-30 -2 -38 -6 -38 -21 0 -16 8 -21 43 -24 l42 -4
-43 -1 -42 -2 0 -269 c1 -199 4 -271 13 -275 9 -3 9 -5 0 -5 -10 -1 -13 -27
-13 -96 l0 -95 785 0 c432 0 785 2 785 4 0 3 -17 31 -38 63 -21 32 -96 155
-167 273 -182 306 -201 336 -269 425 -34 44 -66 89 -73 100 -7 11 -24 39 -37
62 l-26 41 20 78 c11 43 17 81 13 85 -5 4 -28 9 -53 12 l-45 4 52 1 c52 2 76
15 47 26 -26 10 -189 7 -178 -3z m118 -96 c-6 -16 -24 -21 -24 -7 0 11 11 22
21 22 5 0 6 -7 3 -15z m-770 -25 c5 -5 -8 -5 -30 1 -57 15 -64 20 -19 13 22
-3 44 -10 49 -14z m116 -20 c0 -5 -17 -9 -37 -9 -38 1 -38 1 -8 9 43 11 45 11
45 0z m-135 -20 c22 -6 12 -8 -40 -8 -48 0 -64 2 -50 8 24 10 50 10 90 0z
m348 3 c-7 -2 -19 -2 -25 0 -7 3 -2 5 12 5 14 0 19 -2 13 -5z m-150 -30 c-13
-2 -35 -2 -50 0 -16 2 -5 4 22 4 28 0 40 -2 28 -4z m-168 -24 c13 -6 4 -7 -30
-3 -27 4 -52 8 -54 10 -9 8 65 2 84 -7z m660 -29 c-9 -16 -20 -30 -26 -30 -6
0 -7 -4 -4 -10 6 -10 -62 -43 -79 -37 -6 2 6 9 27 16 20 7 37 19 37 27 0 13
46 64 57 64 2 0 -3 -13 -12 -30z m-507 13 c-10 -2 -28 -2 -40 0 -13 2 -5 4 17
4 22 1 32 -1 23 -4z m-145 -30 c-13 -2 -35 -2 -50 0 -16 2 -5 4 22 4 28 0 40
-2 28 -4z m175 -20 c-10 -2 -28 -2 -40 0 -13 2 -5 4 17 4 22 1 32 -1 23 -4z
m-168 -23 l25 -8 -25 -1 c-14 0 -32 4 -40 9 -13 9 -13 10 0 9 8 -1 26 -5 40
-9z m178 -27 c-10 -2 -28 -2 -40 0 -13 2 -5 4 17 4 22 1 32 -1 23 -4z m342 -3
c0 -5 -11 -12 -25 -16 -14 -3 -25 -10 -25 -15 0 -5 -5 -9 -12 -9 -11 0 -106
-35 -180 -67 -20 -8 -39 -22 -42 -29 -3 -8 -12 -14 -21 -14 -8 0 -15 -4 -15
-9 0 -8 -78 -35 -135 -46 -16 -3 22 20 86 52 64 32 123 64 132 71 8 7 64 30
124 51 59 21 109 39 111 40 1 0 2 -3 2 -9z m-522 -17 c-10 -2 -26 -2 -35 0
-10 3 -2 5 17 5 19 0 27 -2 18 -5z m185 -30 c-13 -2 -33 -2 -45 0 -13 2 -3 4
22 4 25 0 35 -2 23 -4z m-165 -20 c-10 -2 -28 -2 -40 0 -13 2 -5 4 17 4 22 1
32 -1 23 -4z m20 -50 c-10 -2 -28 -2 -40 0 -13 2 -5 4 17 4 22 1 32 -1 23 -4z
m-160 -30 c-10 -2 -28 -2 -40 0 -13 2 -5 4 17 4 22 1 32 -1 23 -4z m160 -20
c-10 -2 -26 -2 -35 0 -10 3 -2 5 17 5 19 0 27 -2 18 -5z m-145 -30 c-13 -2
-35 -2 -50 0 -16 2 -5 4 22 4 28 0 40 -2 28 -4z m155 -30 c-10 -2 -26 -2 -35
0 -10 3 -2 5 17 5 19 0 27 -2 18 -5z m-140 -20 c-10 -2 -26 -2 -35 0 -10 3 -2
5 17 5 19 0 27 -2 18 -5z m9 -49 c-3 -3 -12 -4 -19 -1 -8 3 -5 6 6 6 11 1 17
-2 13 -5z"/>
<path d="M64 1162 c-7 -4 25 -7 70 -8 53 -1 71 1 51 6 -41 10 -107 11 -121 2z"/>
<path d="M625 1160 c-4 -6 20 -10 64 -10 41 0 71 4 71 10 0 6 -28 10 -64 10
-36 0 -68 -4 -71 -10z"/>
<path d="M2573 1152 c11 -11 33 -26 50 -32 37 -12 27 -2 -28 30 -38 23 -39 23
-22 2z"/>
<path d="M435 1150 c-3 -6 -43 -7 -100 -3 -61 4 -95 2 -95 -4 0 -14 158 -25
180 -13 10 6 58 11 107 11 74 1 82 3 48 10 -56 11 -133 11 -140 -1z"/>
<path d="M1040 1141 c0 -5 6 -14 14 -20 11 -9 15 -8 20 5 9 23 8 24 -14 24
-11 0 -20 -4 -20 -9z"/>
<path d="M74 1133 c10 -10 126 -22 145 -15 12 5 10 8 -9 13 -33 9 -145 11
-136 2z"/>
<path d="M8 1113 c7 -3 16 -2 19 1 4 3 -2 6 -13 5 -11 0 -14 -3 -6 -6z"/>
</g>
</svg>
